<?xml version="1.0" standalone="no"?>
<!DOCTYPE svg PUBLIC "-//W3C//DTD SVG 20010904//EN"
 "http://www.w3.org/TR/2001/REC-SVG-20010904/DTD/svg10.dtd">
<svg version="1.0" xmlns="http://www.w3.org/2000/svg"
 width="108.000000pt" height="19.000000pt" viewBox="0 0 108.000000 19.000000"
 preserveAspectRatio="xMidYMid meet">

<g transform="translate(0.000000,19.000000) scale(0.100000,-0.100000)"
fill="#000000" stroke="none">
<path d="M26 169 c-28 -22 -35 -59 -11 -59 9 0 15 9 15 24 0 14 5 28 10 31 12
8 13 -19 1 -65 -22 -87 -23 -90 -2 -90 16 0 21 9 27 45 5 35 10 45 25 45 11 0
19 5 19 10 0 6 -7 10 -16 10 -25 0 -12 33 15 40 14 3 26 11 29 18 7 22 -82 15
-112 -9z"/>
<path d="M408 155 c-6 -14 -19 -25 -28 -25 -9 0 -28 -9 -41 -20 l-23 -21 -8
21 c-10 26 -45 26 -74 -1 l-22 -21 -11 21 c-26 49 -94 4 -89 -59 3 -32 6 -35
33 -35 24 0 33 6 45 32 18 38 29 43 23 10 -11 -56 62 -60 89 -5 l17 33 0 -33
c1 -37 23 -52 52 -33 12 7 19 7 19 1 0 -13 37 -13 44 -1 4 5 1 11 -6 13 -10 4
-10 16 0 57 15 64 15 91 2 91 -6 0 -16 -11 -22 -25z m-238 -111 c-7 -7 -17
-11 -22 -8 -11 7 -2 52 15 73 10 12 13 8 15 -18 2 -18 -2 -39 -8 -47z m114 35
c-4 -35 -11 -49 -25 -49 -12 0 -12 47 2 71 14 27 27 15 23 -22z m108 4 c-2
-16 -9 -34 -14 -40 -16 -20 -29 -4 -22 25 13 55 46 68 36 15z"/>
<path d="M470 166 c0 -21 21 -31 30 -15 5 7 6 17 4 21 -9 14 -34 9 -34 -6z"/>
<path d="M632 168 c-5 -7 -13 -35 -17 -61 -8 -51 -28 -80 -53 -75 -20 4 -28
28 -9 28 21 0 50 37 44 55 -7 16 -34 20 -55 6 -7 -4 -19 -25 -27 -47 -18 -52
-40 -59 -31 -10 4 21 10 44 13 52 3 9 -2 14 -14 14 -15 0 -22 -11 -30 -47 -6
-25 -9 -52 -6 -58 5 -14 110 -17 135 -4 9 5 19 5 22 1 2 -4 52 -8 109 -9 l105
-2 11 44 c16 63 33 68 29 8 l-3 -48 80 -1 c82 -2 106 3 85 16 -8 5 -7 24 5 75
8 37 14 70 12 72 -10 9 -37 -11 -37 -28 0 -13 -7 -19 -23 -19 -28 0 -53 -25
-62 -63 -12 -48 -27 -43 -23 9 l3 49 -42 2 c-39 2 -43 -1 -49 -25 -9 -45 -24
-73 -33 -67 -6 3 -6 18 0 38 15 54 13 58 -33 55 -41 -3 -44 -6 -67 -53 -29
-58 -40 -41 -22 30 18 70 11 96 -17 63z m-66 -86 c-14 -14 -16 -14 -16 -1 0
20 23 44 29 28 2 -6 -4 -18 -13 -27z m165 -25 c-6 -15 -15 -27 -21 -27 -16 0
-12 43 8 70 16 24 17 24 20 4 2 -11 -2 -32 -7 -47z m254 21 c-9 -40 -13 -48
-26 -48 -10 0 -12 40 -3 64 3 9 13 16 21 16 11 0 13 -7 8 -32z"/>
</g>
</svg>
